<svg version="1.1" id="Layer_1" xmlns="http://www.w3.org/2000/svg" xmlns:xlink="http://www.w3.org/1999/xlink" x="0px" y="0px"
	 width="100%" viewBox="0 0 190 190" enable-background="new 0 0 190 190" xml:space="preserve">
<path fill="#030303" opacity="1.000000" stroke="none" 
	d="
M191.000000,73.000000 
	C191.000000,112.666664 191.000000,151.833328 191.000000,191.000000 
	C127.666664,191.000000 64.333336,191.000000 1.000000,191.000000 
	C1.000000,127.666664 1.000000,64.333336 1.000000,1.000000 
	C64.333336,1.000000 127.666664,1.000000 191.000000,1.000000 
	C191.000000,24.833334 191.000000,48.666668 191.000000,73.000000 
M96.630531,17.933348 
	C97.447365,17.016939 98.264206,16.100529 99.677261,15.086242 
	C100.461884,14.532481 101.246513,13.978721 102.663048,13.061149 
	C103.319168,12.462816 103.975296,11.864485 105.340477,10.619553 
	C102.427681,25.252045 99.627151,38.889923 97.009789,52.562859 
	C92.252823,77.412941 87.698952,102.302147 82.877487,127.139534 
	C79.760239,143.197830 76.325821,159.194656 73.012695,175.214737 
	C72.502937,177.679596 73.237602,179.538177 75.799927,179.895111 
	C79.498840,180.410339 83.249756,180.552139 87.786148,181.013733 
	C88.851578,181.340363 89.944740,182.018173 90.977928,181.936584 
	C97.630280,181.411255 104.306877,180.979797 110.905617,180.031265 
	C126.975006,177.721359 141.008087,170.346405 152.941910,159.924942 
	C163.785583,150.455444 171.905365,138.383636 176.692886,124.590813 
	C178.956833,118.068413 180.080902,111.150360 181.721420,104.411568 
	C181.198212,104.212646 180.675003,104.013725 180.151794,103.814804 
	C173.940720,108.587212 167.677521,113.293579 161.530807,118.147484 
	C152.311386,125.427864 143.173676,132.811768 133.298203,140.015656 
	C132.793900,140.650085 132.289581,141.284531 131.167740,142.206360 
	C121.656898,149.685928 112.201271,157.237198 102.613945,164.617401 
	C97.115868,168.849747 91.403999,172.804382 85.221992,176.386887 
	C85.831818,172.086761 86.263695,167.752502 87.080864,163.492142 
	C91.743370,139.183746 96.417526,114.877014 101.242683,90.600517 
	C106.348259,64.913109 111.659576,39.266514 116.704025,13.567354 
	C116.892357,12.607898 115.398964,10.494051 114.385521,10.265596 
	C109.984818,9.273578 105.471382,8.781691 100.098633,7.837842 
	C91.485794,8.641848 82.646698,8.480541 74.303780,10.436098 
	C51.875286,15.693274 34.294506,28.454273 21.703470,47.757504 
	C14.732097,58.445259 9.979338,70.065811 8.843740,83.582825 
	C8.721742,84.338989 8.599742,85.095154 8.477742,85.851318 
	C9.081070,85.558327 9.684398,85.265335 10.771613,84.815735 
	C10.821399,84.653679 10.871185,84.491615 11.568643,84.096954 
	C12.081804,83.744820 12.594966,83.392685 13.780679,82.847748 
	C16.364195,80.844307 18.971148,78.870262 21.527018,76.832153 
	C30.696753,69.520004 39.849205,62.186188 49.548740,54.930035 
	C49.733662,54.631214 49.918587,54.332390 50.776215,53.838642 
	C52.501244,52.719460 54.342422,51.743885 55.932461,50.457809 
	C66.332443,42.045979 76.678093,33.566959 87.654724,24.945452 
	C88.461189,24.020761 89.267654,23.096073 90.758064,22.062969 
	C92.504738,20.661148 94.251411,19.259327 96.630531,17.933348 
M136.075211,128.598785 
	C141.489090,124.390678 146.909195,120.190552 152.315414,115.972649 
	C160.820694,109.336868 169.378357,102.765427 177.766052,95.983963 
	C179.507355,94.576126 181.634445,92.446915 181.777588,90.516251 
	C182.055725,86.764557 181.053329,82.917931 180.483093,78.317200 
	C158.169632,95.840866 136.357666,112.970695 113.528900,130.899048 
	C114.212509,127.902435 114.663155,126.213661 114.978668,124.500008 
	C118.411377,105.855873 121.675537,87.179260 125.285698,68.569710 
	C128.306824,52.996468 131.789124,37.512920 134.865311,21.949757 
	C135.156647,20.475832 134.509995,17.973333 133.424408,17.236292 
	C130.702255,15.388130 127.478256,14.279142 124.191284,12.750822 
	C124.065132,14.952330 124.161560,16.641611 123.845711,18.249928 
	C121.248703,31.473665 118.563980,44.680141 115.927574,57.896179 
	C112.721230,73.969269 109.476181,90.034988 106.358116,106.125252 
	C103.112022,122.876167 99.981018,139.649536 96.872910,156.426651 
	C96.715706,157.275177 97.251831,158.252136 97.394531,158.865723 
	C110.439827,148.642395 122.959671,138.830841 136.075211,128.598785 
M63.440117,123.965073 
	C60.344360,139.855957 57.248600,155.746826 54.118736,171.812805 
	C57.647816,173.330475 61.051384,174.794174 64.898186,176.448471 
	C74.278809,128.482605 83.588501,80.879440 93.020973,32.648491 
	C91.164589,33.058926 89.486458,32.957695 88.466789,33.728039 
	C77.595001,41.941486 66.730896,50.171135 56.055016,58.636387 
	C41.415550,70.244499 27.243555,82.471611 12.211886,93.537842 
	C7.660815,96.888313 7.822025,100.134796 8.155279,104.281929 
	C8.323443,106.374619 8.938491,108.431412 9.484365,111.171494 
	C31.082081,94.299637 52.619965,77.474518 74.157845,60.649399 
	C74.616776,60.958569 75.075699,61.267738 75.534630,61.576908 
	C73.875046,70.301765 72.203613,79.024384 70.558777,87.752022 
	C68.330658,99.574547 66.122917,111.400925 63.440117,123.965073 
M137.954346,46.384674 
	C137.604599,48.641331 137.338898,50.914783 136.891830,53.151997 
	C133.233154,71.460976 129.532837,89.761642 125.881714,108.072128 
	C125.700706,108.979897 125.858429,109.955215 125.858429,111.438744 
	C143.772034,97.348656 161.061172,83.749748 178.324188,70.171394 
	C172.005661,49.777622 160.103745,34.288284 142.586395,22.219057 
	C140.948883,30.572023 139.484726,38.040722 137.954346,46.384674 
M56.958645,117.254112 
	C59.337135,104.679436 61.715626,92.104767 64.345497,78.201088 
	C46.781078,91.846642 30.254148,104.588272 13.922232,117.575150 
	C12.720860,118.530464 12.107838,121.508270 12.605054,123.118515 
	C17.534939,139.084076 27.690178,151.524368 39.972721,162.403824 
	C41.946358,164.152008 44.350109,165.414597 46.974194,167.184372 
	C50.255554,150.365540 53.409409,134.200256 56.958645,117.254112 
z"/>
<path fill="#FCFCFC" opacity="1.000000" stroke="none" 
	d="
M135.777374,128.809036 
	C122.959671,138.830841 110.439827,148.642395 97.394531,158.865723 
	C97.251831,158.252136 96.715706,157.275177 96.872910,156.426651 
	C99.981018,139.649536 103.112022,122.876167 106.358116,106.125252 
	C109.476181,90.034988 112.721230,73.969269 115.927574,57.896179 
	C118.563980,44.680141 121.248703,31.473665 123.845711,18.249928 
	C124.161560,16.641611 124.065132,14.952330 124.191284,12.750822 
	C127.478256,14.279142 130.702255,15.388130 133.424408,17.236292 
	C134.509995,17.973333 135.156647,20.475832 134.865311,21.949757 
	C131.789124,37.512920 128.306824,52.996468 125.285698,68.569710 
	C121.675537,87.179260 118.411377,105.855873 114.978668,124.500008 
	C114.663155,126.213661 114.212509,127.902435 113.528900,130.899048 
	C136.357666,112.970695 158.169632,95.840866 180.483093,78.317200 
	C181.053329,82.917931 182.055725,86.764557 181.777588,90.516251 
	C181.634445,92.446915 179.507355,94.576126 177.766052,95.983963 
	C169.378357,102.765427 160.820694,109.336868 152.315414,115.972649 
	C146.909195,120.190552 141.489090,124.390678 135.777374,128.809036 
z"/>
<path fill="#FCFCFC" opacity="1.000000" stroke="none" 
	d="
M63.673279,123.595360 
	C66.122917,111.400925 68.330658,99.574547 70.558777,87.752022 
	C72.203613,79.024384 73.875046,70.301765 75.534630,61.576908 
	C75.075699,61.267738 74.616776,60.958569 74.157845,60.649399 
	C52.619965,77.474518 31.082081,94.299637 9.484365,111.171494 
	C8.938491,108.431412 8.323443,106.374619 8.155279,104.281929 
	C7.822025,100.134796 7.660815,96.888313 12.211886,93.537842 
	C27.243555,82.471611 41.415550,70.244499 56.055016,58.636387 
	C66.730896,50.171135 77.595001,41.941486 88.466789,33.728039 
	C89.486458,32.957695 91.164589,33.058926 93.020973,32.648491 
	C83.588501,80.879440 74.278809,128.482605 64.898186,176.448471 
	C61.051384,174.794174 57.647816,173.330475 54.118736,171.812805 
	C57.248600,155.746826 60.344360,139.855957 63.673279,123.595360 
z"/>
<path fill="#FEFEFE" opacity="1.000000" stroke="none" 
	d="
M134.001221,140.151642 
	C143.173676,132.811768 152.311386,125.427864 161.530807,118.147484 
	C167.677521,113.293579 173.940720,108.587212 180.151794,103.814804 
	C180.675003,104.013725 181.198212,104.212646 181.721420,104.411568 
	C180.080902,111.150360 178.956833,118.068413 176.692886,124.590813 
	C171.905365,138.383636 163.785583,150.455444 152.941910,159.924942 
	C141.008087,170.346405 126.975006,177.721359 110.905617,180.031265 
	C104.306877,180.979797 97.630280,181.411255 90.977928,181.936584 
	C89.944740,182.018173 88.851578,181.340363 87.225174,180.723389 
	C86.372261,179.250046 86.080330,178.067047 85.788391,176.884048 
	C91.403999,172.804382 97.115868,168.849747 102.613945,164.617401 
	C112.201271,157.237198 121.656898,149.685928 131.803513,142.055161 
	C132.959930,141.319855 133.480576,140.735748 134.001221,140.151642 
z"/>
<path fill="#FEFEFE" opacity="1.000000" stroke="none" 
	d="
M10.920973,84.329559 
	C10.871185,84.491615 10.821399,84.653679 10.421014,84.523376 
	C9.763829,83.824318 9.457244,83.417625 9.150660,83.010925 
	C9.979338,70.065811 14.732097,58.445259 21.703470,47.757504 
	C34.294506,28.454273 51.875286,15.693274 74.303780,10.436098 
	C82.646698,8.480541 91.485794,8.641848 100.601059,8.355624 
	C101.412704,10.390592 101.721916,11.907777 102.031136,13.424961 
	C101.246513,13.978721 100.461884,14.532481 99.187546,14.856557 
	C97.724365,14.456344 96.750893,14.285815 95.660774,14.094853 
	C95.801453,15.664059 95.899765,16.760782 95.998085,17.857506 
	C94.251411,19.259327 92.504738,20.661148 90.224602,21.846159 
	C88.807922,22.789532 87.924706,23.949715 87.041489,25.109896 
	C76.678093,33.566959 66.332443,42.045979 55.932461,50.457809 
	C54.342422,51.743885 52.501244,52.719460 50.214256,54.009918 
	C49.362354,54.336304 49.147652,54.562759 49.008198,54.860565 
	C39.849205,62.186188 30.696753,69.520004 21.527018,76.832153 
	C18.971148,78.870262 16.364195,80.844307 13.102474,82.966751 
	C11.923170,83.500359 11.422071,83.914955 10.920973,84.329559 
z"/>
<path fill="#FEFEFE" opacity="1.000000" stroke="none" 
	d="
M137.987457,45.947044 
	C139.484726,38.040722 140.948883,30.572023 142.586395,22.219057 
	C160.103745,34.288284 172.005661,49.777622 178.324188,70.171394 
	C161.061172,83.749748 143.772034,97.348656 125.858429,111.438744 
	C125.858429,109.955215 125.700706,108.979897 125.881714,108.072128 
	C129.532837,89.761642 133.233154,71.460976 136.891830,53.151997 
	C137.338898,50.914783 137.604599,48.641331 137.987457,45.947044 
z"/>
<path fill="#FDFDFD" opacity="1.000000" stroke="none" 
	d="
M56.760952,117.644539 
	C53.409409,134.200256 50.255554,150.365540 46.974194,167.184372 
	C44.350109,165.414597 41.946358,164.152008 39.972721,162.403824 
	C27.690178,151.524368 17.534939,139.084076 12.605054,123.118515 
	C12.107838,121.508270 12.720860,118.530464 13.922232,117.575150 
	C30.254148,104.588272 46.781078,91.846642 64.345497,78.201088 
	C61.715626,92.104767 59.337135,104.679436 56.760952,117.644539 
z"/>
<path fill="#FCFCFC" opacity="1.000000" stroke="none" 
	d="
M102.347092,13.243055 
	C101.721916,11.907777 101.412704,10.390592 101.051208,8.490714 
	C105.471382,8.781691 109.984818,9.273578 114.385521,10.265596 
	C115.398964,10.494051 116.892357,12.607898 116.704025,13.567354 
	C111.659576,39.266514 106.348259,64.913109 101.242683,90.600517 
	C96.417526,114.877014 91.743370,139.183746 87.080864,163.492142 
	C86.263695,167.752502 85.831818,172.086761 85.505196,176.635468 
	C86.080330,178.067047 86.372261,179.250046 86.821335,180.643158 
	C83.249756,180.552139 79.498840,180.410339 75.799927,179.895111 
	C73.237602,179.538177 72.502937,177.679596 73.012695,175.214737 
	C76.325821,159.194656 79.760239,143.197830 82.877487,127.139534 
	C87.698952,102.302147 92.252823,77.412941 97.009789,52.562859 
	C99.627151,38.889923 102.427681,25.252045 105.340477,10.619553 
	C103.975296,11.864485 103.319168,12.462816 102.347092,13.243055 
z"/>
<path fill="#FCFCFC" opacity="1.000000" stroke="none" 
	d="
M96.314308,17.895428 
	C95.899765,16.760782 95.801453,15.664059 95.660774,14.094853 
	C96.750893,14.285815 97.724365,14.456344 98.889435,14.905497 
	C98.264206,16.100529 97.447365,17.016939 96.314308,17.895428 
z"/>
<path fill="#FCFCFC" opacity="1.000000" stroke="none" 
	d="
M87.348106,25.027676 
	C87.924706,23.949715 88.807922,22.789532 89.882629,21.900368 
	C89.267654,23.096073 88.461189,24.020761 87.348106,25.027676 
z"/>
<path fill="#FCFCFC" opacity="1.000000" stroke="none" 
	d="
M8.997200,83.296875 
	C9.457244,83.417625 9.763829,83.824318 10.179070,84.601685 
	C9.684398,85.265335 9.081070,85.558327 8.477743,85.851318 
	C8.599742,85.095154 8.721742,84.338989 8.997200,83.296875 
z"/>
<path fill="#FCFCFC" opacity="1.000000" stroke="none" 
	d="
M133.649719,140.083649 
	C133.480576,140.735748 132.959930,141.319855 132.112274,141.911469 
	C132.289581,141.284531 132.793900,140.650085 133.649719,140.083649 
z"/>
<path fill="#FCFCFC" opacity="1.000000" stroke="none" 
	d="
M11.244807,84.213257 
	C11.422071,83.914955 11.923170,83.500359 12.766198,83.063148 
	C12.594966,83.392685 12.081804,83.744820 11.244807,84.213257 
z"/>
<path fill="#FCFCFC" opacity="1.000000" stroke="none" 
	d="
M49.278469,54.895302 
	C49.147652,54.562759 49.362354,54.336304 49.877907,54.107380 
	C49.918587,54.332390 49.733662,54.631214 49.278469,54.895302 
z"/>
</svg>